<svg width="281" height="78" viewBox="0 0 281 78" fill="none" xmlns="http://www.w3.org/2000/svg">
<path d="M23.6302 8.88599L25.5769 9.26485L25.1875 11.538L20.1261 19.1153L15.454 26.3137L10.0032 34.6487L9.22453 35.7853L11.9499 36.9219L23.2408 40.3317H24.4089L18.1794 37.3008L16.2327 36.1642V34.2699L21.6835 25.1771L26.7449 16.4633L27.5236 15.7055L29.081 16.0844L29.4703 17.5999L24.0195 27.0714L19.3474 35.0276L21.6835 35.7853L23.2408 36.1642L23.6302 33.891L25.9662 29.7235L27.5236 29.3446L28.3023 30.8601L26.3556 35.4064L30.249 33.1333L32.9744 33.5121L36.4785 35.7853L34.1424 30.4812L34.9211 29.3446L36.4785 29.7235L39.2039 35.0276V36.543L42.3186 35.0276H43.0973L37.2571 24.7983L32.9744 17.5999L33.3637 16.0844L34.9211 15.7055L37.2571 19.1153L43.0973 29.3446L46.212 34.6487L45.8227 36.543L39.9825 39.1951L38.4252 39.9528L38.0358 40.7105L52.8308 36.1642L52.0521 34.2699L40.3719 16.0844L37.2571 11.1592L36.8678 9.64371L37.2571 8.88599L39.2039 9.26485L41.9292 13.0535L47.38 21.7674L52.8308 30.1024L56.7242 36.1642L56.3349 38.0585L45.4333 41.4683L37.6465 43.7414H36.8678V44.878L46.9907 43.3626L49.7161 43.7414L58.2816 48.2878L57.8923 50.9399L52.8308 61.9269L47.7694 73.2928L46.212 74.0505L45.044 73.2928L45.4333 71.3985L49.7161 61.9269L54.7775 50.561L55.1669 49.4244L52.8308 48.6667L48.5481 46.3935L43.4866 46.7724L38.8145 47.1512L39.2039 49.4244H42.7079L46.9907 53.5919L46.6013 55.8651L41.9292 64.579L37.2571 72.5351L35.3104 72.1562L35.6998 69.5042L41.5399 58.896L43.876 54.3496L41.1506 52.0765L38.8145 51.6976L37.6465 55.4862L35.3104 58.5171L31.8064 61.1692L29.8596 60.7903L26.3556 57.7594L23.6302 52.4553V51.6976L20.9048 52.4553L18.5687 54.3496L21.6835 60.4115L27.5236 71.0196L26.7449 72.5351L24.7982 72.1562L17.7901 59.2749L15.454 55.1074L15.8433 53.213L19.7368 49.4244H23.2408L23.6302 47.1512L18.9581 46.7724L13.8966 46.3935L8.0565 49.4244H7.27782L10.0032 55.8651L17.4007 72.1562L17.0114 73.6717L15.8433 74.0505L14.286 72.5351L7.27782 57.0017L4.16309 49.8033L4.55243 48.2878L11.1712 44.4992L13.5073 43.3626L18.1794 43.7414L23.6302 44.4992H25.5769V43.7414L20.9048 42.6049L6.88848 38.4374L5.72045 37.6796V35.7853L10.0032 29.3446L20.9048 12.6746L23.6302 8.88599ZM31.0277 35.7853L26.7449 38.4374L28.3023 45.2569L25.9662 48.6667L26.3556 52.4553L27.9129 55.4862L29.8596 57.7594L31.417 58.5171L33.3637 57.0017L35.6998 53.5919L36.4785 50.9399V48.6667L34.5318 45.6358L34.9211 41.8471L35.6998 38.4374L31.8064 35.7853H31.0277Z" fill="#EB2127"/>
<path d="M115.727 19H121.182L120.818 22.4103H119.727L120.091 31.6667L124.818 19H128.091L128.455 28.7436L128.818 31.1795L131.727 22.8974L130.636 21.9231L131.364 19H144.455L146.273 20.4615L147 22.8974L146.636 26.3077L144.818 28.7436H144.091L144.818 30.6923V34.5897H145.909L145.545 38H141.545L141.182 31.1795L138.636 30.2051L138.273 34.5897L139.364 35.0769L138.636 38H133.182L133.545 34.5897H135L135.364 30.6923L136.818 22.4103L135 23.3846L129.545 38H125.545L125.182 28.7436L121.182 38H117.182L116.455 22.8974L115 21.9231L115.727 19ZM140.091 22.4103L139.364 26.7949H142.273L143.727 25.3333L143.364 22.8974L143 22.4103H140.091Z" fill="#FEFEFE"/>
<path d="M238.746 19H244.698L244.302 22.4103L241.524 23.8718L236.762 28.2564L239.54 33.6154L239.937 34.1026H242.714L247.873 22.4103L249.46 19H254.222L255.016 29.2308V34.5897H257L256.603 38H250.254L251.048 34.5897H251.841V31.6667L247.476 32.1538L246.683 34.1026L247.476 34.5897L247.079 38H235.175V34.1026L232 28.2564L233.984 25.8205L237.556 22.4103L238.746 19ZM250.651 24.359L249.063 28.2564H251.444V25.3333L250.651 24.359Z" fill="#FEFEFE"/>
<path d="M175.451 19H182.784L182.353 22.4103L180.627 22.8974L179.765 26.3077H187.098L187.529 22.4103L185.804 21.9231L186.667 19H194L193.569 22.4103H191.412L190.98 26.7949L189.255 34.5897H190.98L190.549 38H183.216L183.647 34.5897H185.373L186.235 29.7179H178.902L178.039 34.5897H179.765L179.333 38H172L172.431 34.5897H174.157L175.882 25.3333L176.314 22.8974L175.02 22.4103L175.451 19Z" fill="#FEFEFE"/>
<path d="M211 19H215.875L219.25 29.7179L220.75 22.4103H219.625L220 19H226L225.625 22.4103H224.125L223.375 28.2564L221.5 38H218.125L214.75 27.7692L213.625 32.1538L213.25 34.5897L214.375 35.0769L213.625 38H208L208.375 34.5897H209.875L210.25 30.6923L211.75 22.4103H210.25L211 19Z" fill="#FEFEFE"/>
<path d="M90.2 19H93.8L96.6 20.8537L99 21.7805L98.2 25.0244H94.2L92.6 23.6341H90.2L87.8 25.9512L87 27.8049V31.5122L88.6 33.3659H91L93 32.439V31.5122L90.2 31.0488L91 27.8049H97.8L97.4 31.9756L96.2 37.5366H93V36.1463L90.6 38H87.4L84.2 35.6829L83 32.9024V27.3415L85 22.7073L87.4 20.3902L90.2 19Z" fill="#FEFEFE"/>
<path d="M259.947 19H268.421L270.263 20.4615L271 22.4103L270.632 26.7949L269.158 28.7436H268.421L268.789 30.2051V34.5897L270.263 35.0769L269.526 38H265.474L265.105 31.1795L264.737 30.6923H262.895L262.158 34.5897H263.263L262.526 38H257L257.368 34.5897H258.842L259.579 28.7436L260.684 22.4103H259.211L259.947 19ZM264 22.4103L263.263 26.7949H266.579L267.684 25.3333L267.316 22.8974L266.947 22.4103H264Z" fill="#FEFEFE"/>
<path d="M106.385 19H110.077L112.538 20.3902L114.179 22.7073L115 27.3415L114.179 31.5122L112.538 34.2927L109.667 37.0732L107.205 38H103.513L100.231 35.6829L99 32.9024V27.3415L101.051 22.7073L103.513 20.3902L106.385 19ZM106.795 23.1707L104.744 24.561L103.103 26.878L102.692 27.8049V31.5122L104.744 33.8293H107.205L109.667 31.9756L110.897 29.1951V25.0244L108.846 23.1707H106.795Z" fill="#FEFEFE"/>
<path d="M198.585 19H202.878L203.268 19.9744L204.049 30.6923V34.5897H206L205.61 38H199.366L199.756 34.5897H200.927L200.537 31.6667H196.244L195.854 34.1026L196.634 34.5897L196.244 38H190L190.39 34.5897L191.951 34.1026L195.854 24.8462L198.585 19ZM199.756 24.359L198.195 27.2821V28.2564H200.537L200.146 24.359H199.756Z" fill="#FEFEFE"/>
<path d="M166.611 19H170.111L172.056 20.3902L172.833 21.3171V22.7073H174L173.611 25.9512H170.111L169.333 23.6341H167L166.222 24.0976V25.4878L170.889 27.8049L172.056 29.6585V33.3659L170.889 35.6829L168.944 37.5366L167.389 38H164.278L161.944 36.6098L161.167 34.2927L160 33.8293L160.778 31.0488H164.278V33.3659H168.167V31.0488L164.278 29.1951L162.722 27.3415L162.333 24.0976L163.5 20.8537L166.611 19Z" fill="#FEFEFE"/>
<path d="M150.808 19H158L157.154 22.4103H155.462L155.038 26.7949L153.346 34.5897H155.038L154.615 38H147L147.846 34.5897H149.538L150.385 28.7436L151.654 22.4103H149.962L150.808 19Z" fill="#FEFEFE"/>
<path d="M228.56 19H234L233.68 22.4103H232.4L231.12 32.1538L230.8 34.1026L231.76 34.5897L231.44 38H226L226.32 34.5897L227.6 34.1026L229.2 23.3846L229.52 22.4103H228.24L228.56 19Z" fill="#FEFEFE"/>
<path d="M145.435 54H147.609L151.957 59.6L152.826 54H155L154.565 62.4L154.13 64L151.957 63.6L148.043 58.8L147.174 64H145V58.8L145.435 54Z" fill="#EB2127"/>
<path d="M109.696 54L111.435 54.4L114.565 59.6L115.261 54H117V58.4L116.652 63.6L114.913 64L111.435 58.4L110.739 64H109V60L109.348 55.2L109.696 54Z" fill="#EB2127"/>
<path d="M178.667 54H183.333L185.333 55.6L186 57.6L185.667 61.2L184.333 63.2L183 64H178L178.333 56.4L178.667 54ZM180.333 55.6L180 62.4H182.333L184 60.4V57.2L182.667 55.6H180.333Z" fill="#EB2127"/>
<path d="M158.833 54H164.667L167.167 55.6L168 57.6L167.583 61.2L165.917 63.2L164.25 64H158L158.417 56.4L158.833 54ZM160.917 55.6L160.5 62.4H163.417L165.5 60.4V57.2L163.833 55.6H160.917Z" fill="#EB2127"/>
<path d="M83.7273 54H89.1818L90.6364 55.2L91 57.2L90.2727 59.2L89.5455 59.6L90.6364 64H88.4545L87.3636 60H85.1818V62.8L84.8182 64H83L83.3636 55.2L83.7273 54ZM85.5455 55.6L85.1818 58.4H88.4545L88.8182 58V56L88.4545 55.6H85.5455Z" fill="#EB2127"/>
<path d="M273.727 54H279.182L280.636 55.2L281 57.2L280.273 59.2L279.545 59.6L280.636 64H278.455L277.364 60H275.182V62.8L274.818 64H273L273.364 55.6L273.727 54ZM275.545 55.6L275.182 58.4H278.455L278.818 58V56L278.455 55.6H275.545Z" fill="#EB2127"/>
<path d="M98.6 54H101.8L104.2 55.6L105 58L104.6 61.2L102.6 63.6L101.4 64H98.2L95.8 62.4L95 60.4L95.4 56.8L97.4 54.4L98.6 54ZM99 55.6L97.4 57.6V60.8L99 62.4H101L102.6 60.4V57.2L101 55.6H99Z" fill="#EB2127"/>
<path d="M239.24 54H242.12L244.28 55.6L245 58L244.64 61.2L242.84 63.6L241.76 64H238.88L236.72 62.4L236 60.4L236.36 56.8L238.16 54.4L239.24 54ZM239.6 55.6L238.16 57.6V60.8L239.6 62.4H241.4L242.84 60.4V57.2L241.4 55.6H239.6Z" fill="#EB2127"/>
<path d="M191.053 54H200V55.6H193.684L193.158 58H198.947V59.6H193.158V62.4H198.947V64H190L190.526 55.2L191.053 54Z" fill="#EB2127"/>
<path d="M134.053 54H143V55.6H136.684L136.158 58H141.947V59.6H136.158V62.4H141.947V64H133L133.526 55.2L134.053 54Z" fill="#EB2127"/>
<path d="M249.952 54H256.619L258.524 54.8L259 55.6V58.4L256.619 60H251.857V63.2L251.381 64H249L249.476 55.2L249.952 54ZM252.333 55.6L251.857 58.4H255.667L256.619 57.6V56L255.667 55.6H252.333Z" fill="#EB2127"/>
<path d="M261.842 54H269V55.6H263.947V58H268.579L268.158 59.6H263.526V62.4H268.579L268.158 64H261L261.421 56.8L261.842 54Z" fill="#EB2127"/>
<path d="M216.632 54H222V55.6H218.211V58H221.684L221.368 59.6H217.895V62.4H221.684L221.368 64H216L216.316 56.8L216.632 54Z" fill="#EB2127"/>
<path d="M202 54H203.923L205.846 58.8L206.615 60.4L209.692 54H212L211.231 56L207.385 63.6L205.462 64L203.923 60.4L202 55.2V54Z" fill="#EB2127"/>
<path d="M71.8421 54H79L78.5789 55.6H73.9474V57.6L78.1579 58V59.6H73.5263V62.4L73.1053 64H71L71.4211 55.2L71.8421 54Z" fill="#EB2127"/>
<path d="M123 54H129V55.6H126.714L126.429 63.2L126.143 64H124.714L125 55.6H123V54Z" fill="#EB2127"/>
<path d="M228.471 54H229.647V58L229.412 62.4H232L231.765 64H228L228.235 55.2L228.471 54Z" fill="#EB2127"/>
</svg>
