<svg width="258" height="60" viewBox="0 0 258 60" fill="none" xmlns="http://www.w3.org/2000/svg">
<path d="M18.7594 10.2812C18.5804 9.65909 18.329 9.10937 18.0052 8.6321C17.6813 8.14631 17.285 7.73722 16.8162 7.40483C16.356 7.06392 15.8276 6.80398 15.231 6.625C14.6429 6.44602 13.9909 6.35653 13.275 6.35653C11.937 6.35653 10.7608 6.68892 9.74663 7.35369C8.74094 8.01846 7.95685 8.98579 7.39435 10.2557C6.83185 11.517 6.5506 13.0597 6.5506 14.8835C6.5506 16.7074 6.82759 18.2585 7.38157 19.5369C7.93555 20.8153 8.71964 21.7912 9.73384 22.4645C10.748 23.1293 11.9455 23.4616 13.3262 23.4616C14.579 23.4616 15.6486 23.2401 16.535 22.7969C17.4299 22.3452 18.1117 21.7102 18.5804 20.892C19.0577 20.0739 19.2963 19.1065 19.2963 17.9901L20.4213 18.1562H13.6713V13.9886H24.6273V17.2869C24.6273 19.5881 24.1415 21.5653 23.1699 23.2188C22.1983 24.8636 20.8603 26.1335 19.1557 27.0284C17.4512 27.9148 15.4995 28.358 13.3006 28.358C10.8461 28.358 8.68981 27.8168 6.83185 26.7344C4.9739 25.6435 3.52504 24.0966 2.48526 22.0938C1.45401 20.0824 0.938388 17.696 0.938388 14.9347C0.938388 12.8125 1.24521 10.9205 1.85884 9.25852C2.481 7.58807 3.35032 6.1733 4.4668 5.0142C5.58327 3.85511 6.88299 2.97301 8.36594 2.3679C9.8489 1.76278 11.4554 1.46023 13.1855 1.46023C14.6685 1.46023 16.0492 1.67756 17.3276 2.11222C18.606 2.53835 19.7395 3.14347 20.7282 3.92756C21.7253 4.71165 22.5392 5.64489 23.1699 6.72727C23.8006 7.80114 24.2054 8.98579 24.3844 10.2812H18.7594ZM37.5552 28.3835C35.5694 28.3835 33.8521 27.9616 32.4032 27.1179C30.9629 26.2656 29.8507 25.081 29.0666 23.5639C28.2825 22.0384 27.8904 20.2699 27.8904 18.2585C27.8904 16.2301 28.2825 14.4574 29.0666 12.9403C29.8507 11.4148 30.9629 10.2301 32.4032 9.38636C33.8521 8.53409 35.5694 8.10795 37.5552 8.10795C39.541 8.10795 41.2541 8.53409 42.6944 9.38636C44.1433 10.2301 45.2598 11.4148 46.0439 12.9403C46.8279 14.4574 47.22 16.2301 47.22 18.2585C47.22 20.2699 46.8279 22.0384 46.0439 23.5639C45.2598 25.081 44.1433 26.2656 42.6944 27.1179C41.2541 27.9616 39.541 28.3835 37.5552 28.3835ZM37.5808 24.1648C38.4842 24.1648 39.2385 23.9091 39.8436 23.3977C40.4487 22.8778 40.9047 22.1705 41.2115 21.2756C41.5268 20.3807 41.6845 19.3622 41.6845 18.2202C41.6845 17.0781 41.5268 16.0597 41.2115 15.1648C40.9047 14.2699 40.4487 13.5625 39.8436 13.0426C39.2385 12.5227 38.4842 12.2628 37.5808 12.2628C36.6689 12.2628 35.9018 12.5227 35.2797 13.0426C34.666 13.5625 34.2015 14.2699 33.8862 15.1648C33.5794 16.0597 33.426 17.0781 33.426 18.2202C33.426 19.3622 33.5794 20.3807 33.8862 21.2756C34.2015 22.1705 34.666 22.8778 35.2797 23.3977C35.9018 23.9091 36.6689 24.1648 37.5808 24.1648ZM54.1426 28L48.7988 8.36364H54.3088L57.3514 21.5568H57.5304L60.7008 8.36364H66.1085L69.3301 21.4801H69.4963L72.4877 8.36364H77.9849L72.6539 28H66.8883L63.5133 15.6506H63.2704L59.8954 28H54.1426ZM80.8901 28V8.36364H86.1699V11.7898H86.3745C86.7324 10.571 87.3333 9.65057 88.177 9.02841C89.0208 8.39773 89.9924 8.08239 91.0918 8.08239C91.3645 8.08239 91.6586 8.09943 91.9739 8.13352C92.2892 8.16761 92.5662 8.21449 92.8049 8.27415V13.1065C92.5492 13.0298 92.1955 12.9616 91.7438 12.902C91.2921 12.8423 90.8787 12.8125 90.5037 12.8125C89.7026 12.8125 88.9867 12.9872 88.356 13.3366C87.7338 13.6776 87.2395 14.1548 86.873 14.7685C86.5151 15.3821 86.3361 16.0895 86.3361 16.8906V28H80.8901ZM95.6206 28V8.36364H101.067V28H95.6206ZM98.3564 5.83239C97.5467 5.83239 96.8521 5.56392 96.2725 5.02699C95.7015 4.48153 95.416 3.82954 95.416 3.07102C95.416 2.32102 95.7015 1.67756 96.2725 1.14062C96.8521 0.59517 97.5467 0.322442 98.3564 0.322442C99.166 0.322442 99.8564 0.59517 100.427 1.14062C101.007 1.67756 101.297 2.32102 101.297 3.07102C101.297 3.82954 101.007 4.48153 100.427 5.02699C99.8564 5.56392 99.166 5.83239 98.3564 5.83239ZM254.923 28.2045C254.292 28.2045 253.751 27.9787 253.3 27.527C252.848 27.0753 252.622 26.5341 252.622 25.9034C252.622 25.2727 252.848 24.7315 253.3 24.2798C253.751 23.8281 254.292 23.6023 254.923 23.6023C255.554 23.6023 256.095 23.8281 256.547 24.2798C256.998 24.7315 257.224 25.2727 257.224 25.9034C257.224 26.321 257.118 26.7045 256.905 27.054C256.7 27.4034 256.423 27.6847 256.074 27.8977C255.733 28.1023 255.349 28.2045 254.923 28.2045ZM131.682 55H126.526V40.4545H131.725C133.188 40.4545 134.447 40.7457 135.503 41.3281C136.559 41.9058 137.371 42.7367 137.939 43.821C138.512 44.9053 138.799 46.2027 138.799 47.7131C138.799 49.2282 138.512 50.5303 137.939 51.6193C137.371 52.7083 136.554 53.544 135.489 54.1264C134.428 54.7088 133.159 55 131.682 55ZM129.601 52.3651H131.554C132.463 52.3651 133.228 52.2041 133.848 51.8821C134.473 51.5554 134.942 51.0511 135.255 50.3693C135.572 49.6828 135.73 48.7973 135.73 47.7131C135.73 46.6383 135.572 45.7599 135.255 45.0781C134.942 44.3963 134.476 43.8944 133.855 43.5724C133.235 43.2505 132.471 43.0895 131.561 43.0895H129.601V52.3651ZM145.991 55.2131C144.869 55.2131 143.903 54.9858 143.094 54.5312C142.289 54.072 141.669 53.4233 141.233 52.5852C140.797 51.7424 140.58 50.7457 140.58 49.5952C140.58 48.473 140.797 47.4882 141.233 46.6406C141.669 45.7931 142.282 45.1326 143.072 44.6591C143.868 44.1856 144.801 43.9489 145.871 43.9489C146.59 43.9489 147.26 44.0649 147.881 44.2969C148.506 44.5241 149.05 44.8674 149.514 45.3267C149.983 45.786 150.348 46.3636 150.608 47.0597C150.868 47.7509 150.999 48.5606 150.999 49.4886V50.3196H141.787V48.4446H148.151C148.151 48.009 148.056 47.6231 147.866 47.2869C147.677 46.9508 147.414 46.688 147.078 46.4986C146.747 46.3045 146.361 46.2074 145.92 46.2074C145.461 46.2074 145.054 46.3139 144.699 46.527C144.348 46.7353 144.074 47.017 143.875 47.3722C143.676 47.7225 143.574 48.1132 143.57 48.544V50.3267C143.57 50.8665 143.669 51.3329 143.868 51.7259C144.071 52.1188 144.358 52.4219 144.727 52.6349C145.097 52.848 145.535 52.9545 146.041 52.9545C146.377 52.9545 146.685 52.9072 146.964 52.8125C147.244 52.7178 147.483 52.5758 147.682 52.3864C147.881 52.197 148.032 51.965 148.136 51.6903L150.935 51.875C150.793 52.5473 150.501 53.1345 150.061 53.6364C149.625 54.1335 149.062 54.5218 148.371 54.8011C147.684 55.0758 146.891 55.2131 145.991 55.2131ZM162.85 44.0909L159.037 55H155.627L151.814 44.0909H155.01L157.275 51.8963H157.389L159.647 44.0909H162.85ZM169.019 55.2131C167.897 55.2131 166.931 54.9858 166.121 54.5312C165.316 54.072 164.696 53.4233 164.26 52.5852C163.825 51.7424 163.607 50.7457 163.607 49.5952C163.607 48.473 163.825 47.4882 164.26 46.6406C164.696 45.7931 165.309 45.1326 166.1 44.6591C166.895 44.1856 167.828 43.9489 168.898 43.9489C169.618 43.9489 170.288 44.0649 170.908 44.2969C171.533 44.5241 172.078 44.8674 172.542 45.3267C173.01 45.786 173.375 46.3636 173.635 47.0597C173.896 47.7509 174.026 48.5606 174.026 49.4886V50.3196H164.814V48.4446H171.178C171.178 48.009 171.083 47.6231 170.894 47.2869C170.704 46.9508 170.442 46.688 170.105 46.4986C169.774 46.3045 169.388 46.2074 168.948 46.2074C168.489 46.2074 168.081 46.3139 167.726 46.527C167.376 46.7353 167.101 47.017 166.902 47.3722C166.703 47.7225 166.602 48.1132 166.597 48.544V50.3267C166.597 50.8665 166.696 51.3329 166.895 51.7259C167.099 52.1188 167.385 52.4219 167.755 52.6349C168.124 52.848 168.562 52.9545 169.069 52.9545C169.405 52.9545 169.712 52.9072 169.992 52.8125C170.271 52.7178 170.51 52.5758 170.709 52.3864C170.908 52.197 171.06 51.965 171.164 51.6903L173.962 51.875C173.82 52.5473 173.529 53.1345 173.088 53.6364C172.653 54.1335 172.089 54.5218 171.398 54.8011C170.712 55.0758 169.918 55.2131 169.019 55.2131ZM179.026 40.4545V55H176V40.4545H179.026ZM186.379 55.2131C185.275 55.2131 184.321 54.9787 183.516 54.5099C182.716 54.0365 182.098 53.3783 181.663 52.5355C181.227 51.688 181.009 50.7055 181.009 49.5881C181.009 48.4612 181.227 47.4763 181.663 46.6335C182.098 45.786 182.716 45.1278 183.516 44.6591C184.321 44.1856 185.275 43.9489 186.379 43.9489C187.482 43.9489 188.433 44.1856 189.234 44.6591C190.039 45.1278 190.659 45.786 191.094 46.6335C191.53 47.4763 191.748 48.4612 191.748 49.5881C191.748 50.7055 191.53 51.688 191.094 52.5355C190.659 53.3783 190.039 54.0365 189.234 54.5099C188.433 54.9787 187.482 55.2131 186.379 55.2131ZM186.393 52.8693C186.895 52.8693 187.314 52.7273 187.65 52.4432C187.986 52.1544 188.239 51.7614 188.41 51.2642C188.585 50.767 188.673 50.2012 188.673 49.5668C188.673 48.9323 188.585 48.3665 188.41 47.8693C188.239 47.3722 187.986 46.9792 187.65 46.6903C187.314 46.4015 186.895 46.2571 186.393 46.2571C185.886 46.2571 185.46 46.4015 185.114 46.6903C184.773 46.9792 184.515 47.3722 184.34 47.8693C184.17 48.3665 184.085 48.9323 184.085 49.5668C184.085 50.2012 184.17 50.767 184.34 51.2642C184.515 51.7614 184.773 52.1544 185.114 52.4432C185.46 52.7273 185.886 52.8693 186.393 52.8693ZM193.715 59.0909V44.0909H196.698V45.9233H196.833C196.966 45.6297 197.157 45.3314 197.408 45.0284C197.664 44.7206 197.996 44.465 198.403 44.2614C198.815 44.053 199.326 43.9489 199.937 43.9489C200.732 43.9489 201.466 44.1572 202.138 44.5739C202.811 44.9858 203.348 45.6084 203.751 46.4418C204.153 47.2704 204.354 48.3097 204.354 49.5597C204.354 50.7765 204.158 51.804 203.765 52.642C203.377 53.4754 202.846 54.1075 202.174 54.5384C201.506 54.9645 200.758 55.1776 199.93 55.1776C199.343 55.1776 198.843 55.0805 198.431 54.8864C198.024 54.6922 197.69 54.4484 197.43 54.1548C197.169 53.8565 196.97 53.5559 196.833 53.2528H196.741V59.0909H193.715ZM196.677 49.5455C196.677 50.1941 196.767 50.7599 196.947 51.2429C197.127 51.7259 197.387 52.1023 197.728 52.3722C198.069 52.6373 198.483 52.7699 198.971 52.7699C199.463 52.7699 199.88 52.6349 200.221 52.3651C200.562 52.0904 200.82 51.7116 200.995 51.2287C201.175 50.741 201.265 50.1799 201.265 49.5455C201.265 48.9157 201.177 48.3617 201.002 47.8835C200.827 47.4053 200.569 47.0312 200.228 46.7614C199.887 46.4915 199.468 46.3565 198.971 46.3565C198.478 46.3565 198.062 46.4867 197.721 46.7472C197.385 47.0076 197.127 47.3769 196.947 47.8551C196.767 48.3333 196.677 48.8968 196.677 49.5455ZM211.343 55.2131C210.221 55.2131 209.255 54.9858 208.445 54.5312C207.64 54.072 207.02 53.4233 206.585 52.5852C206.149 51.7424 205.931 50.7457 205.931 49.5952C205.931 48.473 206.149 47.4882 206.585 46.6406C207.02 45.7931 207.633 45.1326 208.424 44.6591C209.219 44.1856 210.152 43.9489 211.222 43.9489C211.942 43.9489 212.612 44.0649 213.232 44.2969C213.857 44.5241 214.402 44.8674 214.866 45.3267C215.335 45.786 215.699 46.3636 215.96 47.0597C216.22 47.7509 216.35 48.5606 216.35 49.4886V50.3196H207.138V48.4446H213.502C213.502 48.009 213.407 47.6231 213.218 47.2869C213.029 46.9508 212.766 46.688 212.43 46.4986C212.098 46.3045 211.712 46.2074 211.272 46.2074C210.813 46.2074 210.406 46.3139 210.05 46.527C209.7 46.7353 209.425 47.017 209.227 47.3722C209.028 47.7225 208.926 48.1132 208.921 48.544V50.3267C208.921 50.8665 209.021 51.3329 209.219 51.7259C209.423 52.1188 209.71 52.4219 210.079 52.6349C210.448 52.848 210.886 52.9545 211.393 52.9545C211.729 52.9545 212.037 52.9072 212.316 52.8125C212.595 52.7178 212.835 52.5758 213.033 52.3864C213.232 52.197 213.384 51.965 213.488 51.6903L216.286 51.875C216.144 52.5473 215.853 53.1345 215.413 53.6364C214.977 54.1335 214.414 54.5218 213.722 54.8011C213.036 55.0758 212.243 55.2131 211.343 55.2131ZM218.325 55V44.0909H221.258V45.9943H221.371C221.57 45.3172 221.904 44.8059 222.373 44.4602C222.842 44.1098 223.381 43.9347 223.992 43.9347C224.144 43.9347 224.307 43.9441 224.482 43.9631C224.657 43.982 224.811 44.008 224.944 44.0412V46.7259C224.802 46.6832 224.605 46.6454 224.354 46.6122C224.103 46.5791 223.874 46.5625 223.665 46.5625C223.22 46.5625 222.823 46.6596 222.472 46.8537C222.127 47.0431 221.852 47.3082 221.648 47.6491C221.45 47.9901 221.35 48.383 221.35 48.8281V55H218.325Z" fill="white"/>
<path d="M130.869 8.36364C130.716 7.06818 130.094 6.0625 129.003 5.34659C127.912 4.63068 126.574 4.27273 124.989 4.27273C123.83 4.27273 122.816 4.46023 121.946 4.83523C121.085 5.21023 120.412 5.72585 119.926 6.3821C119.449 7.03835 119.21 7.78409 119.21 8.61932C119.21 9.31818 119.377 9.91903 119.709 10.4219C120.05 10.9162 120.485 11.3295 121.013 11.6619C121.541 11.9858 122.095 12.2543 122.675 12.4673C123.254 12.6719 123.787 12.8381 124.273 12.9659L126.932 13.6818C127.614 13.8608 128.372 14.108 129.208 14.4233C130.051 14.7386 130.857 15.169 131.624 15.7145C132.399 16.2514 133.039 16.9418 133.541 17.7855C134.044 18.6293 134.296 19.6648 134.296 20.892C134.296 22.3068 133.925 23.5852 133.183 24.7273C132.45 25.8693 131.377 26.777 129.962 27.4503C128.556 28.1236 126.847 28.4602 124.835 28.4602C122.96 28.4602 121.337 28.1577 119.965 27.5526C118.601 26.9474 117.527 26.1037 116.743 25.0213C115.968 23.9389 115.529 22.6818 115.426 21.25H118.699C118.784 22.2386 119.117 23.0568 119.696 23.7045C120.284 24.3437 121.026 24.821 121.921 25.1364C122.824 25.4432 123.796 25.5966 124.835 25.5966C126.046 25.5966 127.132 25.4006 128.095 25.0085C129.058 24.608 129.821 24.054 130.384 23.3466C130.946 22.6307 131.227 21.7955 131.227 20.8409C131.227 19.9716 130.985 19.2642 130.499 18.7188C130.013 18.1733 129.374 17.7301 128.581 17.3892C127.789 17.0483 126.932 16.75 126.012 16.4943L122.79 15.5739C120.744 14.9858 119.125 14.1463 117.932 13.0554C116.739 11.9645 116.142 10.5369 116.142 8.77273C116.142 7.30682 116.539 6.02841 117.331 4.9375C118.132 3.83807 119.206 2.98579 120.553 2.38068C121.908 1.76704 123.421 1.46023 125.091 1.46023C126.779 1.46023 128.279 1.76278 129.591 2.3679C130.904 2.96449 131.943 3.78267 132.71 4.82244C133.486 5.86221 133.895 7.04261 133.938 8.36364H130.869ZM142.116 16.1875V28H139.099V1.81818H142.116V11.4318H142.372C142.832 10.4176 143.523 9.61222 144.443 9.01562C145.372 8.41051 146.608 8.10795 148.15 8.10795C149.488 8.10795 150.66 8.37642 151.666 8.91335C152.672 9.44176 153.452 10.2557 154.006 11.3551C154.568 12.446 154.849 13.8352 154.849 15.5227V28H151.832V15.7273C151.832 14.1676 151.427 12.9616 150.618 12.1094C149.817 11.2486 148.704 10.8182 147.281 10.8182C146.292 10.8182 145.406 11.027 144.622 11.4446C143.846 11.8622 143.233 12.4716 142.781 13.2727C142.338 14.0739 142.116 15.0455 142.116 16.1875ZM166.147 28.4602C164.903 28.4602 163.774 28.2259 162.759 27.7571C161.745 27.2798 160.94 26.5938 160.343 25.6989C159.747 24.7955 159.448 23.7045 159.448 22.4261C159.448 21.3011 159.67 20.3892 160.113 19.6903C160.556 18.983 161.149 18.429 161.89 18.0284C162.632 17.6278 163.45 17.3295 164.345 17.1335C165.248 16.929 166.156 16.767 167.068 16.6477C168.261 16.4943 169.228 16.3793 169.97 16.3026C170.72 16.2173 171.265 16.0767 171.606 15.8807C171.955 15.6847 172.13 15.3437 172.13 14.858V14.7557C172.13 13.4943 171.785 12.5142 171.095 11.8153C170.413 11.1165 169.377 10.767 167.988 10.767C166.548 10.767 165.419 11.0824 164.6 11.7131C163.782 12.3437 163.207 13.017 162.874 13.733L160.011 12.7102C160.522 11.517 161.204 10.5881 162.056 9.9233C162.917 9.25 163.855 8.78125 164.869 8.51705C165.892 8.24432 166.897 8.10795 167.886 8.10795C168.517 8.10795 169.241 8.18466 170.059 8.33807C170.886 8.48295 171.683 8.78551 172.45 9.24574C173.225 9.70597 173.869 10.4006 174.38 11.3295C174.892 12.2585 175.147 13.5028 175.147 15.0625V28H172.13V25.3409H171.977C171.772 25.767 171.431 26.223 170.954 26.7088C170.477 27.1946 169.842 27.608 169.049 27.9489C168.257 28.2898 167.289 28.4602 166.147 28.4602ZM166.607 25.75C167.801 25.75 168.806 25.5156 169.624 25.0469C170.451 24.5781 171.073 23.973 171.491 23.2315C171.917 22.4901 172.13 21.7102 172.13 20.892V18.1307C172.002 18.2841 171.721 18.4247 171.286 18.5526C170.86 18.6719 170.366 18.7784 169.803 18.8722C169.249 18.9574 168.708 19.0341 168.18 19.1023C167.66 19.1619 167.238 19.2131 166.914 19.2557C166.13 19.358 165.397 19.5241 164.715 19.7543C164.042 19.9759 163.497 20.3125 163.079 20.7642C162.67 21.2074 162.465 21.8125 162.465 22.5795C162.465 23.6278 162.853 24.4205 163.629 24.9574C164.413 25.4858 165.406 25.75 166.607 25.75ZM183.671 16.1875V28H180.654V8.36364H183.569V11.4318H183.824C184.285 10.4347 184.983 9.63352 185.921 9.02841C186.858 8.41477 188.069 8.10795 189.552 8.10795C190.881 8.10795 192.045 8.38068 193.042 8.92614C194.039 9.46307 194.814 10.2812 195.368 11.3807C195.922 12.4716 196.199 13.8523 196.199 15.5227V28H193.182V15.7273C193.182 14.1847 192.782 12.983 191.981 12.1222C191.18 11.2528 190.08 10.8182 188.682 10.8182C187.719 10.8182 186.858 11.027 186.1 11.4446C185.35 11.8622 184.758 12.4716 184.323 13.2727C183.888 14.0739 183.671 15.0455 183.671 16.1875ZM204.525 20.8409L204.474 17.108H205.088L213.678 8.36364H217.411L208.258 17.6193H208.002L204.525 20.8409ZM201.713 28V1.81818H204.73V28H201.713ZM214.19 28L206.519 18.2841L208.667 16.1875L218.025 28H214.19ZM227.073 28.4602C225.829 28.4602 224.699 28.2259 223.685 27.7571C222.671 27.2798 221.866 26.5938 221.269 25.6989C220.672 24.7955 220.374 23.7045 220.374 22.4261C220.374 21.3011 220.596 20.3892 221.039 19.6903C221.482 18.983 222.074 18.429 222.816 18.0284C223.557 17.6278 224.376 17.3295 225.27 17.1335C226.174 16.929 227.081 16.767 227.993 16.6477C229.187 16.4943 230.154 16.3793 230.895 16.3026C231.645 16.2173 232.191 16.0767 232.532 15.8807C232.881 15.6847 233.056 15.3437 233.056 14.858V14.7557C233.056 13.4943 232.711 12.5142 232.02 11.8153C231.339 11.1165 230.303 10.767 228.914 10.767C227.474 10.767 226.344 11.0824 225.526 11.7131C224.708 12.3437 224.133 13.017 223.8 13.733L220.937 12.7102C221.448 11.517 222.13 10.5881 222.982 9.9233C223.843 9.25 224.78 8.78125 225.795 8.51705C226.817 8.24432 227.823 8.10795 228.812 8.10795C229.442 8.10795 230.167 8.18466 230.985 8.33807C231.812 8.48295 232.608 8.78551 233.376 9.24574C234.151 9.70597 234.795 10.4006 235.306 11.3295C235.817 12.2585 236.073 13.5028 236.073 15.0625V28H233.056V25.3409H232.903C232.698 25.767 232.357 26.223 231.88 26.7088C231.403 27.1946 230.768 27.608 229.975 27.9489C229.182 28.2898 228.215 28.4602 227.073 28.4602ZM227.533 25.75C228.726 25.75 229.732 25.5156 230.55 25.0469C231.377 24.5781 231.999 23.973 232.417 23.2315C232.843 22.4901 233.056 21.7102 233.056 20.892V18.1307C232.928 18.2841 232.647 18.4247 232.212 18.5526C231.786 18.6719 231.292 18.7784 230.729 18.8722C230.175 18.9574 229.634 19.0341 229.106 19.1023C228.586 19.1619 228.164 19.2131 227.84 19.2557C227.056 19.358 226.323 19.5241 225.641 19.7543C224.968 19.9759 224.422 20.3125 224.005 20.7642C223.596 21.2074 223.391 21.8125 223.391 22.5795C223.391 23.6278 223.779 24.4205 224.555 24.9574C225.339 25.4858 226.331 25.75 227.533 25.75ZM241.58 28V8.36364H244.494V11.3295H244.699C245.057 10.358 245.705 9.5696 246.642 8.96449C247.58 8.35937 248.637 8.05682 249.813 8.05682C250.034 8.05682 250.311 8.06108 250.644 8.0696C250.976 8.07812 251.227 8.09091 251.398 8.10795V11.1761C251.296 11.1506 251.061 11.1122 250.695 11.0611C250.337 11.0014 249.958 10.9716 249.557 10.9716C248.602 10.9716 247.75 11.1719 247 11.5724C246.259 11.9645 245.671 12.5099 245.236 13.2088C244.81 13.8991 244.597 14.6875 244.597 15.5739V28H241.58ZM35.4606 55V40.4545H44.1822V42.017H37.2219V46.9318H43.5288V48.4943H37.2219V55H35.4606ZM46.8544 55V44.0909H48.4737V45.7386H48.5874C48.7862 45.1989 49.1461 44.7609 49.6669 44.4247C50.1877 44.0885 50.7749 43.9205 51.4283 43.9205C51.5514 43.9205 51.7053 43.9228 51.8899 43.9276C52.0746 43.9323 52.2143 43.9394 52.3089 43.9489V45.6534C52.2521 45.6392 52.1219 45.6179 51.9183 45.5895C51.7195 45.5563 51.5088 45.5398 51.2862 45.5398C50.7559 45.5398 50.2824 45.651 49.8658 45.8736C49.4538 46.0914 49.1271 46.3944 48.8857 46.7827C48.6489 47.1662 48.5305 47.6042 48.5305 48.0966V55H46.8544ZM58.3956 55.2273C57.4107 55.2273 56.5466 54.9929 55.8033 54.5241C55.0646 54.0554 54.487 53.3996 54.0703 52.5568C53.6584 51.714 53.4524 50.7292 53.4524 49.6023C53.4524 48.4659 53.6584 47.474 54.0703 46.6264C54.487 45.7789 55.0646 45.1207 55.8033 44.652C56.5466 44.1832 57.4107 43.9489 58.3956 43.9489C59.3804 43.9489 60.2422 44.1832 60.9808 44.652C61.7242 45.1207 62.3018 45.7789 62.7138 46.6264C63.1304 47.474 63.3388 48.4659 63.3388 49.6023C63.3388 50.7292 63.1304 51.714 62.7138 52.5568C62.3018 53.3996 61.7242 54.0554 60.9808 54.5241C60.2422 54.9929 59.3804 55.2273 58.3956 55.2273ZM58.3956 53.7216C59.1437 53.7216 59.7592 53.5298 60.2422 53.1463C60.7251 52.7628 61.0826 52.2585 61.3146 51.6335C61.5466 51.0085 61.6626 50.3314 61.6626 49.6023C61.6626 48.8731 61.5466 48.1937 61.3146 47.5639C61.0826 46.9342 60.7251 46.4252 60.2422 46.0369C59.7592 45.6487 59.1437 45.4545 58.3956 45.4545C57.6475 45.4545 57.032 45.6487 56.549 46.0369C56.0661 46.4252 55.7086 46.9342 55.4766 47.5639C55.2446 48.1937 55.1286 48.8731 55.1286 49.6023C55.1286 50.3314 55.2446 51.0085 55.4766 51.6335C55.7086 52.2585 56.0661 52.7628 56.549 53.1463C57.032 53.5298 57.6475 53.7216 58.3956 53.7216ZM67.5735 48.4375V55H65.8974V44.0909H67.5167V45.7955H67.6587C67.9144 45.2415 68.3027 44.7964 68.8235 44.4602C69.3443 44.1193 70.0167 43.9489 70.8406 43.9489C71.5792 43.9489 72.2255 44.1004 72.7795 44.4034C73.3335 44.7017 73.7643 45.1562 74.0721 45.767C74.3799 46.3731 74.5337 47.1402 74.5337 48.0682V55H72.8576V48.1818C72.8576 47.3248 72.6351 46.6572 72.19 46.179C71.7449 45.696 71.1341 45.4545 70.3576 45.4545C69.8226 45.4545 69.3443 45.5705 68.9229 45.8026C68.5063 46.0346 68.1772 46.3731 67.9357 46.8182C67.6942 47.2633 67.5735 47.803 67.5735 48.4375ZM82.3409 44.0909V45.5114H76.6875V44.0909H82.3409ZM78.3352 41.4773H80.0114V51.875C80.0114 52.3485 80.08 52.7036 80.2173 52.9403C80.3594 53.1723 80.5393 53.3286 80.7571 53.4091C80.9796 53.4848 81.214 53.5227 81.4602 53.5227C81.6449 53.5227 81.7964 53.5133 81.9148 53.4943C82.0331 53.4706 82.1278 53.4517 82.1989 53.4375L82.5398 54.9432C82.4261 54.9858 82.2675 55.0284 82.0639 55.071C81.8603 55.1184 81.6023 55.142 81.2898 55.142C80.8163 55.142 80.3523 55.0402 79.8977 54.8366C79.4479 54.633 79.0739 54.3229 78.7756 53.9062C78.482 53.4896 78.3352 52.964 78.3352 52.3295V41.4773ZM85.3239 55V40.4545H94.1023V42.017H87.0852V46.9318H93.6477V48.4943H87.0852V53.4375H94.2159V55H85.3239ZM98.7259 48.4375V55H97.0497V44.0909H98.669V45.7955H98.8111C99.0668 45.2415 99.455 44.7964 99.9759 44.4602C100.497 44.1193 101.169 43.9489 101.993 43.9489C102.732 43.9489 103.378 44.1004 103.932 44.4034C104.486 44.7017 104.917 45.1562 105.224 45.767C105.532 46.3731 105.686 47.1402 105.686 48.0682V55H104.01V48.1818C104.01 47.3248 103.787 46.6572 103.342 46.179C102.897 45.696 102.286 45.4545 101.51 45.4545C100.975 45.4545 100.497 45.5705 100.075 45.8026C99.6586 46.0346 99.3295 46.3731 99.0881 46.8182C98.8466 47.2633 98.7259 47.803 98.7259 48.4375ZM112.868 55.2273C111.959 55.2273 111.157 54.9976 110.461 54.5384C109.765 54.0743 109.22 53.4209 108.827 52.5781C108.434 51.7306 108.238 50.7292 108.238 49.5739C108.238 48.428 108.434 47.4337 108.827 46.5909C109.22 45.7481 109.767 45.0971 110.468 44.6378C111.168 44.1785 111.978 43.9489 112.897 43.9489C113.607 43.9489 114.168 44.0672 114.58 44.304C114.997 44.536 115.314 44.8011 115.532 45.0994C115.754 45.393 115.927 45.6345 116.05 45.8239H116.192V40.4545H117.868V55H116.249V53.3239H116.05C115.927 53.5227 115.752 53.7737 115.525 54.0767C115.297 54.375 114.973 54.6425 114.551 54.8793C114.13 55.1113 113.569 55.2273 112.868 55.2273ZM113.096 53.7216C113.768 53.7216 114.336 53.5464 114.8 53.196C115.264 52.8409 115.617 52.3509 115.858 51.7259C116.1 51.0961 116.221 50.3693 116.221 49.5455C116.221 48.7311 116.102 48.0185 115.865 47.4077C115.629 46.7921 115.278 46.3139 114.814 45.973C114.35 45.6274 113.777 45.4545 113.096 45.4545C112.385 45.4545 111.793 45.6368 111.32 46.0014C110.851 46.3613 110.498 46.8513 110.262 47.4716C110.03 48.0871 109.914 48.7784 109.914 49.5455C109.914 50.322 110.032 51.0275 110.269 51.6619C110.51 52.2917 110.865 52.7936 111.334 53.1676C111.808 53.5369 112.395 53.7216 113.096 53.7216Z" fill="#EB2127"/>
</svg>
